<?xml version="1.0" encoding="UTF-8"?> <svg xmlns="http://www.w3.org/2000/svg" xmlns:xlink="http://www.w3.org/1999/xlink" width="94px" height="94px" viewBox="0 0 94 94" version="1.1"><title>Group 11@2x</title><g id="SOURCE" stroke="none" stroke-width="1" fill="none" fill-rule="evenodd"><g id="security-center-home" transform="translate(-823.000000, -680.000000)"><g id="platform-products" transform="translate(0.000000, 525.000000)"><g id="Group-5" transform="translate(743.000000, 157.000000)"><g id="Group-11" transform="translate(82.000000, 0.000000)"><circle id="Oval" fill="#0674DB" cx="44.5" cy="45.5" r="33.5"></circle><path d="M45,90 C69.8528137,90 90,69.8528137 90,45 C90,20.1471863 69.8528137,0 45,0 C20.1471863,0 0,20.1471863 0,45 C0,69.8528137 20.1471863,90 45,90 Z" id="oval-dashed" stroke="#CCD1DA" stroke-width="3" opacity="0.602143787" stroke-linecap="round" stroke-dasharray="7,11" fill-rule="nonzero"></path><g id="products/manager/icon/blue" transform="translate(21.000000, 25.999900)" fill="#FFFFFF"><path d="M36.457,31.921 L11.055,31.921 C6.517,31.921 2.683,27.99 2.683,23.338 C2.683,19.61 5.11,16.252 8.586,15.172 L9.729,14.817 L9.505,13.642 C9.387,13.012 9.329,12.441 9.329,11.895 C9.329,6.815 13.463,2.682 18.544,2.682 C21.84,2.682 24.908,4.501 26.551,7.431 L27.241,8.66 L28.434,7.913 C29.477,7.26 30.657,6.914 31.847,6.914 C35.404,6.914 38.299,9.809 38.299,13.364 C38.299,14.24 38.126,15.088 37.789,15.884 L37.214,17.235 L38.611,17.686 C41.519,18.622 43.55,21.472 43.55,24.615 C43.55,28.575 40.302,31.921 36.457,31.921 M40.695,15.643 C40.884,14.902 40.98,14.139 40.98,13.364 C40.98,8.327 36.882,4.23 31.847,4.23 C30.603,4.23 29.346,4.5 28.188,5.011 C25.95,1.867 22.368,0 18.544,0 C11.984,0 6.646,5.336 6.646,11.895 C6.646,12.265 6.665,12.633 6.705,13.015 C2.682,14.766 0,18.873 0,23.338 C0,29.549 4.959,34.604 11.055,34.604 L36.457,34.604 C41.756,34.604 46.233,30.03 46.233,24.615 C46.233,20.843 44.021,17.281 40.695,15.643" id="Fill-2"></path><polygon id="Fill-1" points="19.4883 27.2774 13.3043 21.0924 15.2173 19.1794 19.4883 23.4494 29.1113 13.8204 31.0253 15.7334"></polygon></g></g></g></g></g></g></svg> 