<?xml version="1.0" encoding="UTF-8"?> <svg xmlns="http://www.w3.org/2000/svg" xmlns:xlink="http://www.w3.org/1999/xlink" width="94px" height="94px" viewBox="0 0 94 94" version="1.1"><title>icon-migrate</title><g id="Source" stroke="none" stroke-width="1" fill="none" fill-rule="evenodd"><g id="home-4b" transform="translate(-254.000000, -739.000000)"><g id="Product-lineup-light" transform="translate(0.000000, 628.000000)"><g id="icon-migrate" transform="translate(256.000000, 113.000000)"><circle id="Oval" fill="#1486F0" fill-rule="nonzero" cx="45.5" cy="45.5" r="33.5"></circle><path d="M45,90 C69.8528137,90 90,69.8528137 90,45 C90,20.1471863 69.8528137,0 45,0 C20.1471863,0 0,20.1471863 0,45 C0,69.8528137 20.1471863,90 45,90 Z" id="oval-dashed" stroke="#CCD1DA" stroke-width="3" opacity="0.396815" stroke-linecap="round" stroke-dasharray="7,11" fill-rule="nonzero"></path><g id="products/migrate/icon/blue" transform="translate(22.000000, 26.000000)" fill="#FFFFFF"><path d="M36.457,31.921 L24.457,31.921 L24.457,22.389 L28.917,26.848 L30.814,24.951 L23.116,17.254 L15.418,24.951 L17.315,26.848 L21.775,22.387 L21.775,31.921 L11.055,31.921 C6.517,31.921 2.683,27.989 2.683,23.338 C2.683,19.61 5.11,16.252 8.586,15.172 L9.729,14.817 L9.505,13.642 C9.387,13.012 9.329,12.441 9.329,11.895 C9.329,6.815 13.463,2.681 18.544,2.681 C21.84,2.681 24.908,4.501 26.551,7.431 L27.241,8.66 L28.434,7.913 C29.477,7.26 30.657,6.914 31.847,6.914 C35.404,6.914 38.299,9.808 38.299,13.364 C38.299,14.24 38.126,15.087 37.789,15.884 L37.214,17.235 L38.611,17.686 C41.519,18.622 43.55,21.472 43.55,24.615 C43.55,28.575 40.302,31.921 36.457,31.921 M40.695,15.642 C40.884,14.902 40.98,14.138 40.98,13.364 C40.98,8.327 36.882,4.23 31.847,4.23 C30.603,4.23 29.346,4.499 28.188,5.011 C25.949,1.867 22.368,1.3500312e-13 18.544,1.3500312e-13 C11.984,1.3500312e-13 6.646,5.336 6.646,11.895 C6.646,12.265 6.665,12.633 6.705,13.015 C2.682,14.766 8.8817842e-14,18.873 8.8817842e-14,23.338 C8.8817842e-14,29.549 4.958,34.604 11.055,34.604 L36.457,34.604 C41.756,34.604 46.233,30.03 46.233,24.615 C46.233,20.843 44.021,17.281 40.695,15.642" id="Fill-1"></path></g></g></g></g></g></svg> 