<?xml version="1.0" encoding="UTF-8"?> <svg xmlns="http://www.w3.org/2000/svg" xmlns:xlink="http://www.w3.org/1999/xlink" width="94px" height="94px" viewBox="0 0 94 94" version="1.1"><title>icon-backup</title><g id="Source" stroke="none" stroke-width="1" fill="none" fill-rule="evenodd"><g id="home-4b" transform="translate(-673.000000, -739.000000)"><g id="Product-lineup-light" transform="translate(0.000000, 628.000000)"><g id="product-elements" transform="translate(256.000000, 113.000000)"><g id="icon-backup" transform="translate(419.000000, 0.000000)"><circle id="Oval" fill="#0674DB" cx="45.5" cy="45.5" r="33.5"></circle><path d="M45,90 C69.8528137,90 90,69.8528137 90,45 C90,20.1471863 69.8528137,0 45,0 C20.1471863,0 0,20.1471863 0,45 C0,69.8528137 20.1471863,90 45,90 Z" id="oval-dashed" stroke="#CCD1DA" stroke-width="3" opacity="0.602143787" stroke-linecap="round" stroke-dasharray="7,11" fill-rule="nonzero"></path><g id="products/backup/icon/blue" transform="translate(19.924207, 25.500000)" fill="#FFFFFF"><path d="M26.8515,0.0353 C16.3485,-0.5947 7.1595,7.2303 5.9765,17.5833 L1.9905,13.5963 L-0.0005,15.5853 L7.5675,23.1523 L15.1385,15.5853 L13.1475,13.5963 L8.7665,17.9743 C9.6925,9.5553 16.7835,2.9813 25.3415,2.8193 C25.4485,2.8183 25.5565,2.8163 25.6625,2.8163 C34.7255,2.8163 42.3295,10.0843 42.6845,19.1643 C42.8665,23.8373 41.1815,28.2673 37.9395,31.6393 C34.6945,35.0143 30.3365,36.8713 25.6685,36.8713 C20.9285,36.8713 16.5225,34.9543 13.2595,31.4743 L12.9935,31.1923 L10.9415,33.1213 L11.2065,33.4023 C15.0095,37.4553 20.1445,39.6853 25.6685,39.6853 C31.1135,39.6853 36.1945,37.5163 39.9775,33.5773 C43.7555,29.6413 45.7145,24.4713 45.4935,19.0203 C45.0845,8.9623 36.8965,0.6233 26.8515,0.0353" id="Fill-2"></path><polygon id="Fill-1" points="24.0375 6.7541 24.0375 23.1911 34.2315 27.6111 35.3495 25.0301 26.8525 21.3451 26.8525 6.7541"></polygon></g></g></g></g></g></g></svg> 