<?xml version="1.0" encoding="UTF-8"?> <svg xmlns="http://www.w3.org/2000/svg" xmlns:xlink="http://www.w3.org/1999/xlink" width="136px" height="103px" viewBox="0 0 136 103" version="1.1"><title>Group 7@2x</title><defs><polygon id="path-1" points="0 0 36 0 36 42 0 42"></polygon></defs><g id="SOURCE" stroke="none" stroke-width="1" fill="none" fill-rule="evenodd"><g id="security-center-home" transform="translate(-1119.000000, -671.000000)"><g id="platform-products" transform="translate(0.000000, 525.000000)"><g id="Group-7" transform="translate(1121.000000, 146.000000)"><g id="icon-manager-copy" transform="translate(0.000000, 11.000000)"><circle id="Oval" fill="#0454A9" cx="44.5" cy="45.5" r="33.5"></circle><path d="M45,90 C69.8528137,90 90,69.8528137 90,45 C90,20.1471863 69.8528137,0 45,0 C20.1471863,0 0,20.1471863 0,45 C0,69.8528137 20.1471863,90 45,90 Z" id="oval-dashed" stroke="#CCD1DA" stroke-width="3" stroke-linecap="round" stroke-dasharray="7,11" fill-rule="nonzero"></path></g><g id="Group-6" transform="translate(27.000000, 36.000000)"><mask id="mask-2" fill="white"><use xlink:href="#path-1"></use></mask><g id="Clip-2"></g><path d="M2.77261908,8.11570248 L2.77261908,16.5737898 C2.77261908,33.1770956 17.6827579,38.9787485 17.8331952,39.0354191 L18.0004814,39.0968123 L18.1725816,39.0330579 C18.3182049,38.9787485 33.2283437,33.1770956 33.2283437,16.5737898 L33.2283437,8.11570248 L32.7349095,8.11570248 C23.2778209,8.11570248 18.5480731,4.14521842 18.3519029,3.97638725 L18.0028884,3.66469894 L17.6610949,3.96458087 C17.6189725,4.00236128 12.8783932,8.11570248 3.26605333,8.11570248 L2.77261908,8.11570248 Z M18.0004814,42 L16.8559546,41.5808737 C16.6886684,41.5194805 -0.000240699632,35.1995277 -0.000240699632,16.5737898 L-0.000240699632,5.39551358 L3.26605333,5.39551358 C11.6460111,5.39551358 15.7788238,1.96576151 15.8197427,1.93152302 L18.0149234,0 L20.1980691,1.94687131 C20.214918,1.95985832 24.3946672,5.39551358 32.7349095,5.39551358 L36,5.39551358 L36,16.5737898 C36,35.1995277 19.3110909,41.5194805 19.1426012,41.5808737 L18.0004814,42 Z" id="Fill-1" fill="#FFFFFF" mask="url(#mask-2)"></path><polygon id="Fill-4" fill="#FFFFFF" mask="url(#mask-2)" points="16.6243439 27.1463415 10.4347826 21.0259397 12.3494107 19.1330682 16.6243439 23.3582487 26.256908 13.8292683 28.173913 15.7221397"></polygon></g><g id="badge-purple" transform="translate(90.000000, 0.000000)"><rect id="Rectangle" fill="#9D31B4" fill-rule="nonzero" x="1" y="0" width="42" height="19" rx="4"></rect><text id="NEW" font-family="Gotham-Bold, Gotham" font-size="11" font-weight="bold" fill="#FFFFFF"><tspan x="7.799" y="13">NEW</tspan></text></g></g></g></g></g></svg> 